<?xml version="1.0" encoding="utf-8"?>
<!-- Generator: Adobe Illustrator 27.2.0, SVG Export Plug-In . SVG Version: 6.00 Build 0)  -->
<svg version="1.1" id="Capa_1" xmlns="http://www.w3.org/2000/svg" xmlns:xlink="http://www.w3.org/1999/xlink" x="0px" y="0px"
	 viewBox="0 0 80 90" style="enable-background:new 0 0 80 90;" xml:space="preserve">
<style type="text/css">
	.st0{fill:#76323F;}
	.st1{stroke:#76323F;stroke-width:3;stroke-miterlimit:10;}
	.st2{font-family:'MyriadPro-Regular';}
	.st3{font-size:16.5515px;}
</style>
<g>
	<path class="st0" d="M3.4,54.9l73.1,0.4L58.5,87.1l-36.6-0.2L3.4,54.9 M3.4,51.9c-1.1,0-2.1,0.6-2.6,1.5c-0.5,0.9-0.5,2.1,0,3
		l18.5,32c0.5,0.9,1.5,1.5,2.6,1.5l36.6,0.2c0,0,0,0,0,0c1.1,0,2.1-0.6,2.6-1.5l18.1-31.8c0.5-0.9,0.5-2.1,0-3
		c-0.5-0.9-1.5-1.5-2.6-1.5L3.4,51.9C3.5,51.9,3.5,51.9,3.4,51.9L3.4,51.9z"/>
</g>
<text transform="matrix(0.725 0 0 1 25.7026 75.4375)" class="st1 st2 st3">&lt;  /  &gt;</text>
<g>
	<path class="st0" d="M28.4,44.8c0,0,1.2,0.8,2.7,1.7c2.5,1.6,5.7,3.7,6,3.9H6.4L28.4,44.8 M28.4,41.8c-0.2,0-0.5,0-0.7,0.1l-22,5.6
		c-1.5,0.4-2.4,1.8-2.2,3.3c0.2,1.5,1.5,2.6,3,2.6h30.7c1.4,0,2.6-0.9,2.9-2.2c0.3-1.3-0.2-2.7-1.4-3.4c-0.1-0.1-1-0.6-5.9-3.8
		L30,42.3C29.6,41.9,29,41.8,28.4,41.8L28.4,41.8z"/>
</g>
<g>
	<path class="st0" d="M49.4,44.8l24.2,5.6H42c0.4-0.3,1.1-0.7,1.8-1.2c1.1-0.8,2.4-1.8,3.5-2.7c0.6-0.5,1.2-0.9,1.6-1.3
		C49.2,44.9,49.4,44.8,49.4,44.8 M49.4,41.8c-0.7,0-1.4,0.2-1.9,0.7c0,0-0.2,0.2-0.6,0.5c-0.4,0.3-0.9,0.7-1.5,1.2
		c-1.3,1.1-2.5,2-3.4,2.6c-0.9,0.6-1.3,0.9-1.5,1c-1.2,0.7-1.8,2.1-1.4,3.4c0.3,1.3,1.5,2.2,2.9,2.2h31.7c1.5,0,2.8-1.1,3-2.7
		c0.2-1.5-0.8-2.9-2.3-3.3l-24.2-5.6C49.9,41.8,49.6,41.8,49.4,41.8L49.4,41.8z"/>
</g>
<g>
	<path class="st0" d="M47.2,39c0,1.2,0,2.5,0,3.8c0,0.1,0,0.2,0,0.2c-2.2,2.6-5.2,3.9-8.3,3.9s-6.1-1.3-8.3-3.9c0-0.1,0-0.2,0-0.2
		c0-1.2,0-2.5,0-3.8c2.7,0.8,5.5,1.2,8.3,1.2S44.5,39.8,47.2,39 M47.2,37c-0.2,0-0.4,0-0.6,0.1c-2.5,0.8-5.1,1.2-7.7,1.2
		s-5.2-0.4-7.7-1.2C31,37,30.8,37,30.6,37c-0.4,0-0.8,0.1-1.2,0.4c-0.5,0.4-0.8,1-0.8,1.6v3.8V43c0,0.5,0.2,0.9,0.5,1.3
		c2.4,2.9,6,4.6,9.8,4.6c3.8,0,7.4-1.7,9.8-4.6c0.3-0.4,0.5-0.8,0.5-1.3v-0.2V39c0-0.6-0.3-1.2-0.8-1.6C48,37.1,47.6,37,47.2,37
		L47.2,37z"/>
</g>
<g>
	<path class="st0" d="M39.4,4c10,0,13.5,7.3,13.1,16.9c0,3.9-0.4,7.6-1.7,10.4c-1.7,4.1-5.9,6.7-11.5,6.7c-5.4,0-9.5-2.5-11.3-6.6
		c-1.4-2.9-1.9-6.6-1.9-10.6C25.9,11.3,29.5,4,39.4,4C39.3,4,39.3,4,39.4,4C39.3,4,39.3,4,39.4,4 M39.4,1L39.4,1
		C39.4,1,39.3,1,39.4,1c-4.8,0-8.6,1.5-11.4,4.3c-3.3,3.4-5,8.8-4.8,15.6c0,4.9,0.7,8.7,2.1,11.8c2.3,5.2,7.6,8.3,14,8.3
		c6.6,0,12-3.3,14.2-8.5c1.3-2.9,1.9-6.6,2-11.5c0.3-6.7-1.3-12.1-4.6-15.5C48.1,2.5,44.2,1,39.4,1L39.4,1z"/>
</g>
</svg>
