<svg version="1.1" id="Capa_1" xmlns="http://www.w3.org/2000/svg" x="0" y="0" viewBox="0 0 80 90" style="enable-background:new 0 0 80 90" xml:space="preserve"><style>.st0{fill:#d7cec7}.st1{font-family:&apos;ArialMT&apos;}.st2{font-size:16.5515px}</style><path class="st0" d="m3.4 54.9 73.1.4-3.9 6.9-14.1 24.9-36.6-.2-18.5-32m0-3c-1.1 0-2.1.6-2.6 1.5s-.5 2.1 0 3l18.5 32c.5.9 1.5 1.5 2.6 1.5l36.6.2c1.1 0 2.1-.6 2.6-1.5l18.1-31.8c.5-.9.5-2.1 0-3s-1.5-1.5-2.6-1.5l-73.2-.4c.1 0 .1 0 0 0z"/><text transform="matrix(.725 0 0 1 25.703 75.438)" class="st1 st2">&lt;  /  &gt;</text><g style="enable-background:new"><linearGradient id="SVGID_1_" gradientUnits="userSpaceOnUse" x1="24.203" y1="71.022" x2="61.92" y2="71.022"><stop offset="0" style="stop-color:#fff"/><stop offset="1" style="stop-color:#000"/></linearGradient><path d="M26.4 70.3v-1.4l5.7-3.3V67l-4.5 2.6 4.5 2.6v1.4l-5.7-3.3z" style="fill:url(#SVGID_1_)"/><linearGradient id="SVGID_00000176033008041853124490000016647821323029345705_" gradientUnits="userSpaceOnUse" x1="24.203" y1="71.022" x2="61.92" y2="71.022"><stop offset="0" style="stop-color:#fff"/><stop offset="1" style="stop-color:#000"/></linearGradient><path style="fill:url(#SVGID_00000176033008041853124490000016647821323029345705_)" d="m39.4 75.6 2.5-12.3h.8l-2.5 12.3h-.8z"/><linearGradient id="SVGID_00000114051907727045576560000006224946633493963441_" gradientUnits="userSpaceOnUse" x1="24.203" y1="71.022" x2="61.92" y2="71.022"><stop offset="0" style="stop-color:#fff"/><stop offset="1" style="stop-color:#000"/></linearGradient><path style="fill:url(#SVGID_00000114051907727045576560000006224946633493963441_)" d="M55.7 70.3 50 73.6v-1.4l4.5-2.6L50 67v-1.4l5.7 3.3v1.4z"/><text transform="matrix(.725 0 0 1 25.703 75.438)" class="st1 st2" style="fill:none;stroke:#d7cec7;stroke-width:3;stroke-miterlimit:10">&lt;  /  &gt;</text></g><path class="st0" d="M28.4 44.8s1.2.8 2.7 1.7c2.5 1.6 5.7 3.7 6 3.9H6.4l10.3-2.6 11.7-3m0-3c-.2 0-.5 0-.7.1l-22 5.6c-1.5.4-2.4 1.8-2.2 3.3s1.5 2.6 3 2.6h30.7c1.4 0 2.6-.9 2.9-2.2.3-1.3-.2-2.7-1.4-3.4-.1-.1-1-.6-5.9-3.8L30 42.3c-.4-.4-1-.5-1.6-.5z"/><path class="st0" d="m49.4 44.8 7.1 1.7 17.1 3.9H42c.4-.3 1.1-.7 1.8-1.2 1.1-.8 2.4-1.8 3.5-2.7.6-.5 1.2-.9 1.6-1.3.3-.3.5-.4.5-.4m0-3c-.7 0-1.4.2-1.9.7 0 0-.2.2-.6.5-.4.3-.9.7-1.5 1.2-1.3 1.1-2.5 2-3.4 2.6s-1.3.9-1.5 1c-1.2.7-1.8 2.1-1.4 3.4.3 1.3 1.5 2.2 2.9 2.2h31.7c1.5 0 2.8-1.1 3-2.7.2-1.5-.8-2.9-2.3-3.3l-24.2-5.6h-.8z"/><path class="st0" d="M47.2 39v4c-2.2 2.6-5.2 3.9-8.3 3.9s-6.1-1.3-8.3-3.9v-4c2.7.8 5.5 1.2 8.3 1.2s5.6-.4 8.3-1.2m0-2c-.2 0-.4 0-.6.1-2.5.8-5.1 1.2-7.7 1.2s-5.2-.4-7.7-1.2c-.2-.1-.4-.1-.6-.1-.4 0-.8.1-1.2.4-.5.4-.8 1-.8 1.6v4c0 .5.2.9.5 1.3 2.4 2.9 6 4.6 9.8 4.6 3.8 0 7.4-1.7 9.8-4.6.3-.4.5-.8.5-1.3v-4c0-.6-.3-1.2-.8-1.6-.4-.3-.8-.4-1.2-.4z"/><path class="st0" d="M39.4 4c10 0 13.5 7.3 13.1 16.9 0 3.9-.4 7.6-1.7 10.4-1.7 4.1-5.9 6.7-11.5 6.7-5.4 0-9.5-2.5-11.3-6.6-1.4-2.9-1.9-6.6-1.9-10.6C25.9 11.3 29.5 4 39.4 4c-.1 0-.1 0 0 0-.1 0-.1 0 0 0m0-3s-.1 0 0 0C34.6 1 30.8 2.5 28 5.3c-3.3 3.4-5 8.8-4.8 15.6 0 4.9.7 8.7 2.1 11.8 2.3 5.2 7.6 8.3 14 8.3 6.6 0 12-3.3 14.2-8.5 1.3-2.9 1.9-6.6 2-11.5.3-6.7-1.3-12.1-4.6-15.5-2.8-3-6.7-4.5-11.5-4.5z"/></svg>